<svg xmlns="http://www.w3.org/2000/svg" viewBox="0 0 460 80" width="460" height="80">
  <!-- Cactus icon -->
  <g transform="translate(8, 8)">
    <!-- Main stem -->
    <rect x="26" y="16" width="8" height="48" rx="4" fill="#006847"/>
    <!-- Left arm -->
    <path d="M26 36 Q26 28 18 28 Q10 28 10 36 L10 44 Q10 48 14 48 Q18 48 18 44 L18 40 Q18 36 22 36 Z" fill="#006847"/>
    <!-- Right arm -->
    <path d="M34 30 Q34 22 42 22 Q50 22 50 30 L50 38 Q50 42 46 42 Q42 42 42 38 L42 34 Q42 30 38 30 Z" fill="#006847"/>
  </g>
  <!-- "Go" text -->
  <text x="68" y="58" font-family="'Inter', 'Segoe UI', system-ui, -apple-system, sans-serif" font-size="54" font-weight="800" fill="#006847" letter-spacing="-1">Go</text>
  <!-- "2" text in accent orange -->
  <text x="148" y="58" font-family="'Inter', 'Segoe UI', system-ui, -apple-system, sans-serif" font-size="54" font-weight="800" fill="#FF6B35" letter-spacing="-1">2</text>
  <!-- "Mexico" text -->
  <text x="182" y="58" font-family="'Inter', 'Segoe UI', system-ui, -apple-system, sans-serif" font-size="54" font-weight="800" fill="#006847" letter-spacing="-1">Mexico</text>
</svg>
